<svg id="visual" viewBox="0 0 1000 50" width="1000" height="50" xmlns="http://www.w3.org/2000/svg" xmlns:xlink="http://www.w3.org/1999/xlink" version="1.1"><rect x="0" y="0" width="1000" height="50" fill="#001220"></rect><path d="M0 31L5.3 28C10.7 25 21.3 19 32.2 15.8C43 12.7 54 12.3 64.8 12.2C75.7 12 86.3 12 97 13.7C107.7 15.3 118.3 18.7 129 19C139.7 19.3 150.3 16.7 161.2 19.3C172 22 183 30 193.8 30.7C204.7 31.3 215.3 24.7 226 18.3C236.7 12 247.3 6 258 5.8C268.7 5.7 279.3 11.3 290.2 14.5C301 17.7 312 18.3 322.8 17.8C333.7 17.3 344.3 15.7 355 18C365.7 20.3 376.3 26.7 387 25.8C397.7 25 408.3 17 419.2 17.3C430 17.7 441 26.3 451.8 27.3C462.7 28.3 473.3 21.7 484 17.8C494.7 14 505.3 13 516 14.5C526.7 16 537.3 20 548.2 20.8C559 21.7 570 19.3 580.8 21.2C591.7 23 602.3 29 613 32.2C623.7 35.3 634.3 35.7 645 34C655.7 32.3 666.3 28.7 677.2 23.8C688 19 699 13 709.8 15.7C720.7 18.3 731.3 29.7 742 35.7C752.7 41.7 763.3 42.3 774 36C784.7 29.7 795.3 16.3 806.2 11.7C817 7 828 11 838.8 13C849.7 15 860.3 15 871 14.3C881.7 13.7 892.3 12.3 903 13.7C913.7 15 924.3 19 935.2 22.7C946 26.3 957 29.7 967.8 30.2C978.7 30.7 989.3 28.3 994.7 27.2L1000 26L1000 0L994.7 0C989.3 0 978.7 0 967.8 0C957 0 946 0 935.2 0C924.3 0 913.7 0 903 0C892.3 0 881.7 0 871 0C860.3 0 849.7 0 838.8 0C828 0 817 0 806.2 0C795.3 0 784.7 0 774 0C763.3 0 752.7 0 742 0C731.3 0 720.7 0 709.8 0C699 0 688 0 677.2 0C666.3 0 655.7 0 645 0C634.3 0 623.7 0 613 0C602.3 0 591.7 0 580.8 0C570 0 559 0 548.2 0C537.3 0 526.7 0 516 0C505.3 0 494.7 0 484 0C473.3 0 462.7 0 451.8 0C441 0 430 0 419.2 0C408.3 0 397.7 0 387 0C376.3 0 365.7 0 355 0C344.3 0 333.7 0 322.8 0C312 0 301 0 290.2 0C279.3 0 268.7 0 258 0C247.3 0 236.7 0 226 0C215.3 0 204.7 0 193.8 0C183 0 172 0 161.2 0C150.3 0 139.7 0 129 0C118.3 0 107.7 0 97 0C86.3 0 75.7 0 64.8 0C54 0 43 0 32.2 0C21.3 0 10.7 0 5.3 0L0 0Z" fill="#0066FF" stroke-linecap="round" stroke-linejoin="miter"></path></svg>