<svg id="visual" viewBox="0 0 900 200" width="900" height="200" xmlns="http://www.w3.org/2000/svg" xmlns:xlink="http://www.w3.org/1999/xlink" version="1.1"><rect x="0" y="0" width="900" height="200" fill="#0066FF"></rect><path d="M0 56L7.2 54.2C14.3 52.3 28.7 48.7 43 50.2C57.3 51.7 71.7 58.3 86 55.7C100.3 53 114.7 41 128.8 35C143 29 157 29 171.2 31.5C185.3 34 199.7 39 214 40.8C228.3 42.7 242.7 41.3 257 44C271.3 46.7 285.7 53.3 300 57C314.3 60.7 328.7 61.3 343 61.3C357.3 61.3 371.7 60.7 386 55.3C400.3 50 414.7 40 428.8 36.3C443 32.7 457 35.3 471.2 34.8C485.3 34.3 499.7 30.7 514 34C528.3 37.3 542.7 47.7 557 50C571.3 52.3 585.7 46.7 600 48.8C614.3 51 628.7 61 643 64.2C657.3 67.3 671.7 63.7 686 58.8C700.3 54 714.7 48 728.8 44.7C743 41.3 757 40.7 771.2 45.2C785.3 49.7 799.7 59.3 814 59.3C828.3 59.3 842.7 49.7 857 43.2C871.3 36.7 885.7 33.3 892.8 31.7L900 30L900 0L892.8 0C885.7 0 871.3 0 857 0C842.7 0 828.3 0 814 0C799.7 0 785.3 0 771.2 0C757 0 743 0 728.8 0C714.7 0 700.3 0 686 0C671.7 0 657.3 0 643 0C628.7 0 614.3 0 600 0C585.7 0 571.3 0 557 0C542.7 0 528.3 0 514 0C499.7 0 485.3 0 471.2 0C457 0 443 0 428.8 0C414.7 0 400.3 0 386 0C371.7 0 357.3 0 343 0C328.7 0 314.3 0 300 0C285.7 0 271.3 0 257 0C242.7 0 228.3 0 214 0C199.7 0 185.3 0 171.2 0C157 0 143 0 128.8 0C114.7 0 100.3 0 86 0C71.7 0 57.3 0 43 0C28.7 0 14.3 0 7.2 0L0 0Z" fill="#FFF" stroke-linecap="round" stroke-linejoin="miter"></path></svg>