<svg id="visual" viewBox="0 0 900 100" width="900" height="100" xmlns="http://www.w3.org/2000/svg" xmlns:xlink="http://www.w3.org/1999/xlink" version="1.1"><rect x="0" y="0" width="900" height="100" fill="#001220"></rect><path d="M0 69L5.5 64.7C11 60.3 22 51.7 33.2 46.8C44.3 42 55.7 41 66.8 45.2C78 49.3 89 58.7 100 61.7C111 64.7 122 61.3 133.2 62.7C144.3 64 155.7 70 166.8 69.7C178 69.3 189 62.7 200 60.5C211 58.3 222 60.7 233.2 60C244.3 59.3 255.7 55.7 266.8 54.7C278 53.7 289 55.3 300 53.3C311 51.3 322 45.7 333.2 43C344.3 40.3 355.7 40.7 366.8 41C378 41.3 389 41.7 400 42.7C411 43.7 422 45.3 433.2 45.5C444.3 45.7 455.7 44.3 466.8 44C478 43.7 489 44.3 500 46.7C511 49 522 53 533.2 57.3C544.3 61.7 555.7 66.3 566.8 67.3C578 68.3 589 65.7 600 61.5C611 57.3 622 51.7 633.2 49.3C644.3 47 655.7 48 666.8 47.2C678 46.3 689 43.7 700 43C711 42.3 722 43.7 733.2 46C744.3 48.3 755.7 51.7 766.8 55.5C778 59.3 789 63.7 800 66.7C811 69.7 822 71.3 833.2 67.2C844.3 63 855.7 53 866.8 48.8C878 44.7 889 46.3 894.5 47.2L900 48L900 101L894.5 101C889 101 878 101 866.8 101C855.7 101 844.3 101 833.2 101C822 101 811 101 800 101C789 101 778 101 766.8 101C755.7 101 744.3 101 733.2 101C722 101 711 101 700 101C689 101 678 101 666.8 101C655.7 101 644.3 101 633.2 101C622 101 611 101 600 101C589 101 578 101 566.8 101C555.7 101 544.3 101 533.2 101C522 101 511 101 500 101C489 101 478 101 466.8 101C455.7 101 444.3 101 433.2 101C422 101 411 101 400 101C389 101 378 101 366.8 101C355.7 101 344.3 101 333.2 101C322 101 311 101 300 101C289 101 278 101 266.8 101C255.7 101 244.3 101 233.2 101C222 101 211 101 200 101C189 101 178 101 166.8 101C155.7 101 144.3 101 133.2 101C122 101 111 101 100 101C89 101 78 101 66.8 101C55.7 101 44.3 101 33.2 101C22 101 11 101 5.5 101L0 101Z" fill="#FFF" stroke-linecap="round" stroke-linejoin="miter"></path></svg>