<svg id="visual" viewBox="0 0 1000 50" width="1000" height="50" xmlns="http://www.w3.org/2000/svg" xmlns:xlink="http://www.w3.org/1999/xlink" version="1.1"><rect x="0" y="0" width="1000" height="50" fill="#001220"></rect><path d="M0 9L7.2 10.8C14.3 12.7 28.7 16.3 43.2 18.5C57.7 20.7 72.3 21.3 86.8 22.2C101.3 23 115.7 24 130.2 25C144.7 26 159.3 27 173.8 25.7C188.3 24.3 202.7 20.7 217.2 19.5C231.7 18.3 246.3 19.7 260.8 20.3C275.3 21 289.7 21 304.2 20.8C318.7 20.7 333.3 20.3 347.8 20C362.3 19.7 376.7 19.3 391.2 17.3C405.7 15.3 420.3 11.7 434.8 10.3C449.3 9 463.7 10 478.2 9.3C492.7 8.7 507.3 6.3 521.8 8.3C536.3 10.3 550.7 16.7 565.2 19.5C579.7 22.3 594.3 21.7 608.8 20.8C623.3 20 637.7 19 652.2 19.7C666.7 20.3 681.3 22.7 695.8 20.3C710.3 18 724.7 11 739.2 8.3C753.7 5.7 768.3 7.3 782.8 8.8C797.3 10.3 811.7 11.7 826.2 13.8C840.7 16 855.3 19 869.8 20.8C884.3 22.7 898.7 23.3 913.2 21.5C927.7 19.7 942.3 15.3 956.8 14C971.3 12.7 985.7 14.3 992.8 15.2L1000 16L1000 51L992.8 51C985.7 51 971.3 51 956.8 51C942.3 51 927.7 51 913.2 51C898.7 51 884.3 51 869.8 51C855.3 51 840.7 51 826.2 51C811.7 51 797.3 51 782.8 51C768.3 51 753.7 51 739.2 51C724.7 51 710.3 51 695.8 51C681.3 51 666.7 51 652.2 51C637.7 51 623.3 51 608.8 51C594.3 51 579.7 51 565.2 51C550.7 51 536.3 51 521.8 51C507.3 51 492.7 51 478.2 51C463.7 51 449.3 51 434.8 51C420.3 51 405.7 51 391.2 51C376.7 51 362.3 51 347.8 51C333.3 51 318.7 51 304.2 51C289.7 51 275.3 51 260.8 51C246.3 51 231.7 51 217.2 51C202.7 51 188.3 51 173.8 51C159.3 51 144.7 51 130.2 51C115.7 51 101.3 51 86.8 51C72.3 51 57.7 51 43.2 51C28.7 51 14.3 51 7.2 51L0 51Z" fill="#fa7268"></path><path d="M0 21L7.2 21.5C14.3 22 28.7 23 43.2 24.8C57.7 26.7 72.3 29.3 86.8 30.7C101.3 32 115.7 32 130.2 30.3C144.7 28.7 159.3 25.3 173.8 24.3C188.3 23.3 202.7 24.7 217.2 25.5C231.7 26.3 246.3 26.7 260.8 26.2C275.3 25.7 289.7 24.3 304.2 24.5C318.7 24.7 333.3 26.3 347.8 27.3C362.3 28.3 376.7 28.7 391.2 29.2C405.7 29.7 420.3 30.3 434.8 28.5C449.3 26.7 463.7 22.3 478.2 22.2C492.7 22 507.3 26 521.8 28.5C536.3 31 550.7 32 565.2 32.3C579.7 32.7 594.3 32.3 608.8 28.8C623.3 25.3 637.7 18.7 652.2 16.7C666.7 14.7 681.3 17.3 695.8 20.2C710.3 23 724.7 26 739.2 25.7C753.7 25.3 768.3 21.7 782.8 19.3C797.3 17 811.7 16 826.2 17.7C840.7 19.3 855.3 23.7 869.8 24.3C884.3 25 898.7 22 913.2 22.2C927.7 22.3 942.3 25.7 956.8 27.3C971.3 29 985.7 29 992.8 29L1000 29L1000 51L992.8 51C985.7 51 971.3 51 956.8 51C942.3 51 927.7 51 913.2 51C898.7 51 884.3 51 869.8 51C855.3 51 840.7 51 826.2 51C811.7 51 797.3 51 782.8 51C768.3 51 753.7 51 739.2 51C724.7 51 710.3 51 695.8 51C681.3 51 666.7 51 652.2 51C637.7 51 623.3 51 608.8 51C594.3 51 579.7 51 565.2 51C550.7 51 536.3 51 521.8 51C507.3 51 492.7 51 478.2 51C463.7 51 449.3 51 434.8 51C420.3 51 405.7 51 391.2 51C376.7 51 362.3 51 347.8 51C333.3 51 318.7 51 304.2 51C289.7 51 275.3 51 260.8 51C246.3 51 231.7 51 217.2 51C202.7 51 188.3 51 173.8 51C159.3 51 144.7 51 130.2 51C115.7 51 101.3 51 86.8 51C72.3 51 57.7 51 43.2 51C28.7 51 14.3 51 7.2 51L0 51Z" fill="#ef5f67"></path><path d="M0 29L7.2 30.2C14.3 31.3 28.7 33.7 43.2 33.2C57.7 32.7 72.3 29.3 86.8 28.3C101.3 27.3 115.7 28.7 130.2 29.8C144.7 31 159.3 32 173.8 30.5C188.3 29 202.7 25 217.2 23.3C231.7 21.7 246.3 22.3 260.8 22.7C275.3 23 289.7 23 304.2 22.5C318.7 22 333.3 21 347.8 21.7C362.3 22.3 376.7 24.7 391.2 26C405.7 27.3 420.3 27.7 434.8 29.5C449.3 31.3 463.7 34.7 478.2 36.2C492.7 37.7 507.3 37.3 521.8 37.2C536.3 37 550.7 37 565.2 35.5C579.7 34 594.3 31 608.8 28.3C623.3 25.7 637.7 23.3 652.2 22.5C666.7 21.7 681.3 22.3 695.8 22C710.3 21.7 724.7 20.3 739.2 21.7C753.7 23 768.3 27 782.8 30C797.3 33 811.7 35 826.2 34.5C840.7 34 855.3 31 869.8 29.7C884.3 28.3 898.7 28.7 913.2 27.7C927.7 26.7 942.3 24.3 956.8 23.2C971.3 22 985.7 22 992.8 22L1000 22L1000 51L992.8 51C985.7 51 971.3 51 956.8 51C942.3 51 927.7 51 913.2 51C898.7 51 884.3 51 869.8 51C855.3 51 840.7 51 826.2 51C811.7 51 797.3 51 782.8 51C768.3 51 753.7 51 739.2 51C724.7 51 710.3 51 695.8 51C681.3 51 666.7 51 652.2 51C637.7 51 623.3 51 608.8 51C594.3 51 579.7 51 565.2 51C550.7 51 536.3 51 521.8 51C507.3 51 492.7 51 478.2 51C463.7 51 449.3 51 434.8 51C420.3 51 405.7 51 391.2 51C376.7 51 362.3 51 347.8 51C333.3 51 318.7 51 304.2 51C289.7 51 275.3 51 260.8 51C246.3 51 231.7 51 217.2 51C202.7 51 188.3 51 173.8 51C159.3 51 144.7 51 130.2 51C115.7 51 101.3 51 86.8 51C72.3 51 57.7 51 43.2 51C28.7 51 14.3 51 7.2 51L0 51Z" fill="#e34c67"></path><path d="M0 31L7.2 32.2C14.3 33.3 28.7 35.7 43.2 37.2C57.7 38.7 72.3 39.3 86.8 38.5C101.3 37.7 115.7 35.3 130.2 35.8C144.7 36.3 159.3 39.7 173.8 39.2C188.3 38.7 202.7 34.3 217.2 34.2C231.7 34 246.3 38 260.8 38.3C275.3 38.7 289.7 35.3 304.2 34.3C318.7 33.3 333.3 34.7 347.8 34.8C362.3 35 376.7 34 391.2 35.2C405.7 36.3 420.3 39.7 434.8 39.3C449.3 39 463.7 35 478.2 35C492.7 35 507.3 39 521.8 39.3C536.3 39.7 550.7 36.3 565.2 36.2C579.7 36 594.3 39 608.8 38C623.3 37 637.7 32 652.2 31.2C666.7 30.3 681.3 33.7 695.8 35.5C710.3 37.3 724.7 37.7 739.2 38.5C753.7 39.3 768.3 40.7 782.8 40.7C797.3 40.7 811.7 39.3 826.2 37.5C840.7 35.7 855.3 33.3 869.8 32.8C884.3 32.3 898.7 33.7 913.2 34.8C927.7 36 942.3 37 956.8 38.3C971.3 39.7 985.7 41.3 992.8 42.2L1000 43L1000 51L992.8 51C985.7 51 971.3 51 956.8 51C942.3 51 927.7 51 913.2 51C898.7 51 884.3 51 869.8 51C855.3 51 840.7 51 826.2 51C811.7 51 797.3 51 782.8 51C768.3 51 753.7 51 739.2 51C724.7 51 710.3 51 695.8 51C681.3 51 666.7 51 652.2 51C637.7 51 623.3 51 608.8 51C594.3 51 579.7 51 565.2 51C550.7 51 536.3 51 521.8 51C507.3 51 492.7 51 478.2 51C463.7 51 449.3 51 434.8 51C420.3 51 405.7 51 391.2 51C376.7 51 362.3 51 347.8 51C333.3 51 318.7 51 304.2 51C289.7 51 275.3 51 260.8 51C246.3 51 231.7 51 217.2 51C202.7 51 188.3 51 173.8 51C159.3 51 144.7 51 130.2 51C115.7 51 101.3 51 86.8 51C72.3 51 57.7 51 43.2 51C28.7 51 14.3 51 7.2 51L0 51Z" fill="#d53867"></path><path d="M0 48L7.2 45.7C14.3 43.3 28.7 38.7 43.2 37.8C57.7 37 72.3 40 86.8 41.8C101.3 43.7 115.7 44.3 130.2 44C144.7 43.7 159.3 42.3 173.8 41.3C188.3 40.3 202.7 39.7 217.2 40.3C231.7 41 246.3 43 260.8 43C275.3 43 289.7 41 304.2 40.2C318.7 39.3 333.3 39.7 347.8 41.3C362.3 43 376.7 46 391.2 46.7C405.7 47.3 420.3 45.7 434.8 43.3C449.3 41 463.7 38 478.2 38.7C492.7 39.3 507.3 43.7 521.8 44C536.3 44.3 550.7 40.7 565.2 40.5C579.7 40.3 594.3 43.7 608.8 43.5C623.3 43.3 637.7 39.7 652.2 39.3C666.7 39 681.3 42 695.8 43.2C710.3 44.3 724.7 43.7 739.2 43.2C753.7 42.7 768.3 42.3 782.8 42.7C797.3 43 811.7 44 826.2 43.7C840.7 43.3 855.3 41.7 869.8 42C884.3 42.3 898.7 44.7 913.2 45.5C927.7 46.3 942.3 45.7 956.8 43.7C971.3 41.7 985.7 38.3 992.8 36.7L1000 35L1000 51L992.8 51C985.7 51 971.3 51 956.8 51C942.3 51 927.7 51 913.2 51C898.7 51 884.3 51 869.8 51C855.3 51 840.7 51 826.2 51C811.7 51 797.3 51 782.8 51C768.3 51 753.7 51 739.2 51C724.7 51 710.3 51 695.8 51C681.3 51 666.7 51 652.2 51C637.7 51 623.3 51 608.8 51C594.3 51 579.7 51 565.2 51C550.7 51 536.3 51 521.8 51C507.3 51 492.7 51 478.2 51C463.7 51 449.3 51 434.8 51C420.3 51 405.7 51 391.2 51C376.7 51 362.3 51 347.8 51C333.3 51 318.7 51 304.2 51C289.7 51 275.3 51 260.8 51C246.3 51 231.7 51 217.2 51C202.7 51 188.3 51 173.8 51C159.3 51 144.7 51 130.2 51C115.7 51 101.3 51 86.8 51C72.3 51 57.7 51 43.2 51C28.7 51 14.3 51 7.2 51L0 51Z" fill="#c62368"></path></svg>